<svg width="50" height="50" viewBox="0 0 50 50" fill="none" xmlns="http://www.w3.org/2000/svg">
<rect width="50" height="50" rx="25" fill="#F8FAFC"/>
<path d="M25 28C25.8333 28 26.5417 27.7083 27.125 27.125C27.7083 26.5417 28 25.8333 28 25C28 24.1667 27.7083 23.4583 27.125 22.875C26.5417 22.2917 25.8333 22 25 22C24.1667 22 23.4583 22.2917 22.875 22.875C22.2917 23.4583 22 24.1667 22 25C22 25.8333 22.2917 26.5417 22.875 27.125C23.4583 27.7083 24.1667 28 25 28ZM25 30C23.6167 30 22.4375 29.5125 21.4625 28.5375C20.4875 27.5625 20 26.3833 20 25C20 23.6167 20.4875 22.4375 21.4625 21.4625C22.4375 20.4875 23.6167 20 25 20C26.3833 20 27.5625 20.4875 28.5375 21.4625C29.5125 22.4375 30 23.6167 30 25C30 26.3833 29.5125 27.5625 28.5375 28.5375C27.5625 29.5125 26.3833 30 25 30ZM18 26H14V24H18V26ZM36 26H32V24H36V26ZM24 18V14H26V18H24ZM24 36V32H26V36H24ZM19.4 20.75L16.875 18.325L18.3 16.85L20.7 19.35L19.4 20.75ZM31.7 33.15L29.275 30.625L30.6 29.25L33.125 31.675L31.7 33.15ZM29.25 19.4L31.675 16.875L33.15 18.3L30.65 20.7L29.25 19.4ZM16.85 31.7L19.375 29.275L20.75 30.6L18.325 33.125L16.85 31.7Z" fill="#020617"/>
</svg>
