<svg width="50" height="50" viewBox="0 0 50 50" fill="none" xmlns="http://www.w3.org/2000/svg">
<rect width="50" height="50" rx="25" fill="#020617"/>
<path d="M27 35C25.6333 35 24.3417 34.7375 23.125 34.2125C21.9083 33.6875 20.8458 32.9708 19.9375 32.0625C19.0292 31.1542 18.3125 30.0917 17.7875 28.875C17.2625 27.6583 17 26.3667 17 25C17 23.6167 17.2625 22.3208 17.7875 21.1125C18.3125 19.9042 19.0292 18.8458 19.9375 17.9375C20.8458 17.0292 21.9083 16.3125 23.125 15.7875C24.3417 15.2625 25.6333 15 27 15C27.9 15 28.775 15.1167 29.625 15.35C30.475 15.5833 31.2667 15.9167 32 16.35C30.4833 17.2333 29.2708 18.4292 28.3625 19.9375C27.4542 21.4458 27 23.1333 27 25C27 26.8667 27.4542 28.5542 28.3625 30.0625C29.2708 31.5708 30.4833 32.7667 32 33.65C31.2667 34.0833 30.475 34.4167 29.625 34.65C28.775 34.8833 27.9 35 27 35ZM27 33H27.525C27.6917 33 27.85 32.9833 28 32.95C27.05 31.85 26.3125 30.6208 25.7875 29.2625C25.2625 27.9042 25 26.4833 25 25C25 23.5167 25.2625 22.0958 25.7875 20.7375C26.3125 19.3792 27.05 18.15 28 17.05C27.85 17.0167 27.6917 17 27.525 17H27C24.7833 17 22.8958 17.7792 21.3375 19.3375C19.7792 20.8958 19 22.7833 19 25C19 27.2167 19.7792 29.1042 21.3375 30.6625C22.8958 32.2208 24.7833 33 27 33Z" fill="#F8FAFC"/>
</svg>
